<svg width="41" height="41" viewBox="0 0 41 41" fill="none" xmlns="http://www.w3.org/2000/svg">
<circle cx="20.9237" cy="20.0878" r="20.08" fill="white"/>
<g clip-path="url(#clip0_174_1208)">
<path d="M31.1502 20.2738C31.1502 19.4347 31.0805 18.8225 30.9297 18.1875H21.125V21.9746H26.8802C26.7642 22.9157 26.1376 24.3331 24.7452 25.2855L24.7257 25.4122L27.8257 27.7591L28.0405 27.78C30.013 25.9998 31.1502 23.3806 31.1502 20.2738Z" fill="#09152A"/>
<path d="M21.1259 30.2569C23.9455 30.2569 26.3125 29.3497 28.0414 27.785L24.7461 25.2904C23.8643 25.8914 22.6807 26.3109 21.1259 26.3109C18.3644 26.3109 16.0205 24.5308 15.185 22.0703L15.0625 22.0805L11.839 24.5183L11.7969 24.6328C13.5141 27.9664 17.0415 30.2569 21.1259 30.2569Z" fill="#34A853"/>
<path d="M15.1817 22.0707C14.9612 21.4357 14.8337 20.7554 14.8337 20.0524C14.8337 19.3493 14.9612 18.669 15.1701 18.0341L15.1643 17.8989L11.9004 15.4219L11.7936 15.4715C11.0858 16.8548 10.6797 18.4083 10.6797 20.0524C10.6797 21.6965 11.0858 23.2498 11.7936 24.6332L15.1817 22.0707Z" fill="#FBBC05"/>
<path d="M21.1259 13.7896C23.0868 13.7896 24.4096 14.6173 25.1638 15.309L28.111 12.497C26.301 10.8529 23.9455 9.84375 21.1259 9.84375C17.0415 9.84375 13.5141 12.1341 11.7969 15.4677L15.1734 18.0303C16.0205 15.5698 18.3644 13.7896 21.1259 13.7896Z" fill="#EB4335"/>
</g>
<defs>
<clipPath id="clip0_174_1208">
<rect width="20.48" height="20.48" fill="white" transform="translate(10.6797 9.84375)"/>
</clipPath>
</defs>
</svg>
