<svg width="187" height="67" viewBox="0 0 187 67" fill="none" xmlns="http://www.w3.org/2000/svg">
<g filter="url(#filter0_f_174_1249)">
<path d="M37.8263 38.7862C37.8263 40.7092 37.18 42.4666 35.8875 44.0586V43.3729C35.8875 42.0489 35.5959 40.8589 35.0127 39.8028C34.9812 39.7398 34.9261 39.7319 34.8472 39.7792C34.8157 39.795 34.8078 39.8186 34.8236 39.8501C35.1546 40.8274 35.2649 42.0016 35.1546 43.3729C35.0285 44.1138 34.9182 44.697 34.8236 45.1225V45.2171C34.7448 45.2959 34.6108 45.4141 34.4217 45.5718C34.2483 45.7136 34.1222 45.8239 34.0434 45.9028C34.0907 44.894 34.0749 44.0034 33.9961 43.2311C33.9488 42.8213 33.8621 42.2617 33.736 41.5524C33.6099 40.8431 33.5075 40.2678 33.4287 39.8265C33.3656 39.3694 33.342 38.8335 33.3577 38.2187C33.3735 37.5883 33.4523 37.0051 33.5942 36.4692C33.6099 36.3431 33.5784 36.2485 33.4996 36.1854C33.4208 36.1066 33.3262 36.0751 33.2159 36.0909C33.1213 36.0909 33.0583 36.146 33.0267 36.2564C32.8691 36.7765 32.7667 37.3518 32.7194 37.9823C32.6721 38.6128 32.6563 39.1172 32.6721 39.4955C32.6878 39.8738 32.7272 40.4648 32.7903 41.2687C32.8691 42.0726 32.9164 42.6006 32.9322 42.8528C32.9794 43.8773 32.8612 45.0674 32.5775 46.4229C32.5775 46.4702 32.5696 46.549 32.5539 46.6593C32.5381 46.7539 32.5302 46.8248 32.5302 46.8721C32.4357 46.9194 32.2938 46.9903 32.1046 47.0849C31.9313 47.1795 31.7973 47.2504 31.7027 47.2977C31.6554 47.1716 31.5924 47.0455 31.5136 46.9194C31.2456 46.2416 31.0722 45.6427 30.9934 45.1225C30.757 44.0507 30.7728 42.7897 31.0407 41.3396C31.3244 40.2363 31.419 39.0935 31.3244 37.9114C31.2456 36.7135 30.891 35.6338 30.2605 34.6723C30.1974 34.5777 30.1186 34.5777 30.0241 34.6723C29.961 34.7196 29.9452 34.7826 29.9768 34.8614C30.6861 36.0909 30.9225 37.3834 30.6861 38.7389C30.623 39.1802 30.4575 39.8028 30.1896 40.6067C29.9216 41.4106 29.7482 42.0095 29.6694 42.4036C29.4172 43.6015 29.4015 44.7521 29.6221 45.8555C29.7167 46.5332 29.9295 47.211 30.2605 47.8888C28.8104 48.3616 27.6361 48.669 26.7377 48.8109V47.8888C26.785 47.148 27.1238 45.8555 27.7543 44.0113C28.0538 43.1286 28.2666 42.4824 28.3927 42.0726C28.5188 41.647 28.6528 41.0402 28.7946 40.2521C28.9365 39.464 28.9444 38.7547 28.8183 38.1242C28.6922 37.4937 28.4478 36.9026 28.0853 36.3509C28.0538 36.3037 28.0065 36.2879 27.9435 36.3037C27.8962 36.3037 27.8568 36.3273 27.8252 36.3746C27.8095 36.4219 27.8174 36.4692 27.8489 36.5164C28.1011 36.942 28.2666 37.3991 28.3454 37.8877C28.4242 38.3764 28.44 38.8256 28.3927 39.2354C28.3454 39.6452 28.2272 40.126 28.038 40.6776C27.8647 41.2293 27.6913 41.6864 27.5179 42.0489C27.3603 42.3957 27.1396 42.8528 26.8559 43.4202C26.5879 43.9719 26.3988 44.3817 26.2884 44.6497C25.5792 46.2889 25.2245 47.6287 25.2245 48.669C25.2245 48.8266 25.2403 48.9527 25.2718 49.0473C23.6168 49.268 21.5519 49.4098 19.0773 49.4729C17.8321 49.5044 15.9722 49.4886 13.4975 49.4256C13.4502 49.1419 13.3872 48.3222 13.3084 46.9667C13.3084 46.5254 13.3242 45.7136 13.3557 44.5315C13.403 43.3493 13.4187 42.4351 13.403 41.7889C13.3557 38.8571 12.6937 35.5471 11.4169 31.8588L11.3224 31.8351V31.8588C12.3154 35.7835 12.6858 39.2827 12.4336 42.3563C12.4021 42.6715 12.3154 43.4518 12.1735 44.697C12.0474 45.9422 11.9765 46.8958 11.9607 47.5578C11.9607 48.3459 11.9923 48.9527 12.0553 49.3783C11.8977 49.3625 11.6613 49.3468 11.346 49.331C11.0465 49.3152 10.818 49.2995 10.6604 49.2837V49.2364C10.5658 48.5744 10.55 47.5893 10.6131 46.281C10.6446 45.9658 10.7628 45.1068 10.9677 43.7039C11.1726 42.3011 11.2751 41.2135 11.2751 40.4412C11.2593 39.4324 11.1332 38.266 10.8968 36.942C10.6761 35.618 10.4476 34.4674 10.2111 33.4901C9.99047 32.4971 9.81709 31.3386 9.691 30.0146C9.58066 28.6906 9.64371 27.5163 9.88014 26.4918C9.91166 26.3499 9.84862 26.2632 9.691 26.2317C9.5649 26.2002 9.49397 26.2396 9.47821 26.3499C8.95806 28.2729 8.89501 30.6451 9.28906 33.4665C9.32059 33.7029 9.3994 34.2704 9.52549 35.1688C9.66735 36.0672 9.76192 36.7214 9.80921 37.1312C9.87226 37.541 9.91955 38.1005 9.95107 38.8098C9.99836 39.5034 10.0062 40.1417 9.97471 40.7249C9.92743 41.4184 9.77769 42.4509 9.52549 43.8222C9.28906 45.1935 9.1472 46.2259 9.09992 46.9194C9.02111 47.5341 9.00535 48.3065 9.05263 49.2364H7.6104C7.46854 48.6059 7.39762 48.1567 7.39762 47.8888C7.36609 46.8958 7.51583 45.359 7.84683 43.2784C7.8626 43.168 7.90988 42.8528 7.98869 42.3326C8.08327 41.8125 8.13843 41.4736 8.15419 41.316C8.18572 41.1584 8.233 40.8431 8.29605 40.3703C8.37486 39.8816 8.41427 39.5349 8.41427 39.33C8.43003 39.1093 8.44579 38.7941 8.46155 38.3843C8.49308 37.9587 8.49308 37.6119 8.46155 37.344C8.43003 37.076 8.39063 36.7608 8.34334 36.3982C8.31181 36.0357 8.24877 35.7047 8.15419 35.4052C8.07538 35.09 7.97293 34.7826 7.84683 34.4831C7.84683 34.4516 7.83107 34.4437 7.79955 34.4595C7.76802 34.4595 7.75226 34.4831 7.75226 34.5304C7.92564 35.1136 8.02022 35.7283 8.03598 36.3746C8.0675 37.0051 8.02022 37.675 7.89412 38.3843C7.78379 39.0935 7.66557 39.7083 7.53947 40.2284C7.42914 40.7328 7.25576 41.3948 7.01933 42.2144C6.79866 43.0341 6.64104 43.633 6.54646 44.0113C6.04208 46.1865 5.86081 47.8809 6.00267 49.0946C4.63137 48.9212 3.96937 48.4404 4.01665 47.6523C4.17427 35.7835 4.19004 25.0968 4.06394 15.5923C4.06394 15.3716 4.16639 15.1746 4.3713 15.0012C4.57621 14.8278 4.85204 14.6939 5.19881 14.5993C5.56134 14.489 5.93962 14.4023 6.33368 14.3392C6.74349 14.2762 7.19271 14.2368 7.68133 14.221C8.16996 14.1895 8.59553 14.1658 8.95806 14.1501C9.33635 14.1343 9.71464 14.1264 10.0929 14.1264C10.487 14.1264 10.7392 14.1264 10.8495 14.1264C13.6236 13.89 16.4135 13.7954 19.2192 13.8427C20.9845 13.89 22.9863 14.0713 25.2245 14.3865C27.7464 14.7648 29.5906 15.3401 30.757 16.1125C32.0495 16.9636 32.9322 18.13 33.405 19.6116C33.8936 21.0775 33.9567 22.6064 33.5942 24.1984C33.2474 25.68 32.5302 27.0198 31.4426 28.2177C30.3551 29.4156 29.0705 30.3692 27.5888 31.0785C28.6922 31.1258 29.8428 31.2756 31.0407 31.5278C32.9637 31.9533 34.5714 32.8045 35.8639 34.0812C37.1722 35.3579 37.8263 36.9263 37.8263 38.7862ZM16.3583 16.6562C16.1062 21.7789 15.9801 26.5863 15.9801 31.0785C17.903 31.0312 19.5108 30.3141 20.8032 28.927C22.1115 27.5242 22.7656 25.8376 22.7656 23.8674C22.7656 22.0548 22.1509 20.4628 20.9215 19.0915C19.692 17.7044 18.171 16.8927 16.3583 16.6562ZM22.3637 45.7136C23.8926 44.8152 24.9171 43.4912 25.4373 41.7416C25.9732 39.992 25.855 38.3291 25.0826 36.7529C24.3103 35.0979 22.9863 34.0182 21.1106 33.5138C20.7008 33.4034 20.157 33.3089 19.4792 33.2301C18.8015 33.1512 18.0922 33.1512 17.3514 33.2301C16.6105 33.2931 16.1692 33.4822 16.0273 33.7975C15.9958 33.8448 15.9801 33.9236 15.9801 34.0339C15.9801 34.1285 15.9879 34.2467 16.0037 34.3886C16.0195 34.5147 16.0273 34.5935 16.0273 34.625C16.0589 35.2082 16.0746 36.0909 16.0746 37.273C16.0746 37.604 16.0667 38.0848 16.051 38.7153C16.051 39.33 16.051 39.8974 16.051 40.4176C16.051 40.9219 16.0589 41.3948 16.0746 41.8361C16.0746 42.0568 16.051 42.4824 16.0037 43.1129C15.9722 43.7434 15.9643 44.295 15.9801 44.7679C15.9958 45.2407 16.0589 45.6506 16.1692 45.9973C16.3899 46.6751 17.438 46.9036 19.3137 46.683C20.4171 46.5884 21.4337 46.2653 22.3637 45.7136ZM76.8137 34.3176C76.798 34.2704 76.7586 34.2467 76.6955 34.2467C76.6482 34.2309 76.6009 34.2467 76.5537 34.294C76.5064 34.3255 76.4906 34.3728 76.5064 34.4359C76.8374 35.9017 77.0029 37.1863 77.0029 38.2897C76.5931 39.3773 76.2069 40.2363 75.8444 40.8668C75.8286 40.5673 75.7419 39.858 75.5843 38.7389C75.5685 38.597 75.5291 38.2976 75.4661 37.8405C75.403 37.3676 75.3557 37.0445 75.3242 36.8711C75.3085 36.6977 75.2769 36.4061 75.2296 35.9963C75.1824 35.5707 75.1508 35.2476 75.1351 35.0269C75.1193 34.7905 75.1036 34.491 75.0878 34.1285C75.0878 33.7502 75.0957 33.4271 75.1114 33.1591C75.1272 32.8912 75.1508 32.5917 75.1824 32.2607C75.2296 31.9297 75.2848 31.6144 75.3479 31.315C75.3636 31.2677 75.3557 31.2362 75.3242 31.2204C75.3085 31.1889 75.2769 31.181 75.2296 31.1968C75.1981 31.1968 75.1745 31.2204 75.1587 31.2677C74.6386 32.8439 74.4415 35.1373 74.5676 38.1478C74.6149 39.3142 74.6149 40.4806 74.5676 41.647C74.5676 41.978 74.5361 42.4272 74.4731 42.9947C74.1421 43.4202 73.7717 43.8379 73.3618 44.2477C73.3618 43.6803 73.2988 42.8843 73.1727 41.8598C73.0624 40.8195 72.9993 40.1338 72.9836 39.8028C72.9205 38.9832 73.0072 37.8247 73.2436 36.3273C73.4958 34.8141 73.6377 33.9236 73.6692 33.6556C73.7638 32.5208 73.6771 31.4411 73.4091 30.4165C73.2988 29.9594 73.086 29.3132 72.7708 28.4778C72.4713 27.6266 72.2979 27.1223 72.2506 26.9646C72.2349 26.9016 72.1955 26.8779 72.1324 26.8937C72.0851 26.8937 72.0615 26.9331 72.0615 27.0119C72.1245 27.2484 72.2191 27.5872 72.3452 28.0286C72.4871 28.4699 72.6053 28.8797 72.6998 29.258C72.7944 29.6205 72.8732 29.9673 72.9363 30.2983C73.1254 31.244 73.1097 32.4104 72.889 33.7975C72.8417 34.0812 72.6447 34.9087 72.2979 36.28C71.9669 37.6513 71.7935 38.7153 71.7778 39.4718C71.7462 40.0393 71.7462 40.851 71.7778 41.9071C71.825 42.9474 71.8408 43.6961 71.825 44.1532C71.825 44.7679 71.762 45.3196 71.6359 45.8082C70.9266 46.3441 69.9888 46.8879 68.8224 47.4396C69.2952 46.415 69.5317 45.4535 69.5317 44.5551C69.5474 44.2871 69.5553 43.7749 69.5553 43.0183C69.5553 42.246 69.5711 41.6549 69.6026 41.2451C69.6499 40.8668 69.7287 40.4727 69.839 40.0629C69.9494 39.6373 70.0833 39.1802 70.241 38.6916C70.4143 38.1872 70.5404 37.8011 70.6192 37.5331C71.4704 34.8378 71.3837 32.5286 70.3592 30.6057C70.3276 30.5111 70.2725 30.4953 70.1937 30.5584C70.1621 30.5899 70.1543 30.6214 70.17 30.653C70.7847 32.4341 70.6114 34.625 69.6499 37.2257C69.5711 37.4622 69.4371 37.8011 69.2479 38.2424C69.0746 38.668 68.9248 39.062 68.7987 39.4245C68.6726 39.7713 68.5781 40.1102 68.515 40.4412C68.3889 41.1032 68.2943 42.0805 68.2313 43.3729C68.184 44.7285 67.8924 45.9264 67.3565 46.9667C67.0097 47.6602 66.7024 48.1252 66.4344 48.3616C66.1034 48.4877 65.6857 48.6059 65.1813 48.7163C64.9922 48.7163 64.8661 48.7478 64.803 48.8109C61.6033 49.5517 58.3091 49.6147 54.9202 49C54.4631 48.7163 53.943 48.3144 53.3598 47.7942C52.2564 46.8012 51.4683 45.619 50.9955 44.2477C50.7433 43.6015 50.5069 42.6637 50.2862 41.4342C50.0655 40.189 49.9158 39.4167 49.837 39.1172C49.6793 38.4394 49.3326 37.5173 48.7967 36.3509C48.2765 35.1688 47.9455 34.3807 47.8037 33.9866C47.7879 33.8921 47.7327 33.8605 47.6382 33.8921C47.5593 33.9078 47.5199 33.9551 47.5199 34.0339C47.5988 34.3649 47.8588 35.2082 48.3002 36.5637C48.7573 37.9035 49.0252 38.9517 49.104 39.7083C49.1356 39.9762 49.175 40.4333 49.2222 41.0796C49.2695 41.71 49.3089 42.1987 49.3405 42.5454C49.3877 42.8922 49.4587 43.3178 49.5533 43.8222C49.6636 44.3265 49.7897 44.7915 49.9315 45.2171C50.3098 46.2259 50.893 47.2268 51.6811 48.2198C51.5393 48.1567 51.295 48.07 50.9482 47.9597C50.6172 47.8494 50.3729 47.7627 50.2153 47.6996C49.1907 46.5648 48.5602 45.4457 48.3238 44.3423C48.2135 43.8379 48.111 43.0813 48.0164 42.0726C47.9376 41.0638 47.8509 40.3387 47.7564 39.8974C47.6933 39.4876 47.583 39.0541 47.4254 38.597C47.2835 38.1399 47.1417 37.7538 46.9998 37.4385C46.8579 37.1075 46.6688 36.6898 46.4324 36.1854C46.1959 35.6653 46.0225 35.2712 45.9122 35.0033C45.0611 32.9385 44.9507 31.0549 45.5812 29.3526C45.5654 29.3053 45.5339 29.2817 45.4866 29.2817C44.5724 30.8106 44.3754 32.6232 44.8956 34.7196C45.0217 35.1609 45.2187 35.752 45.4866 36.4928C45.7704 37.2179 45.9989 37.8956 46.1723 38.5261C46.3614 39.1566 46.4875 39.7556 46.5506 40.323C46.5663 40.6067 46.59 41.0874 46.6215 41.7652C46.6688 42.4272 46.7003 42.9552 46.7161 43.3493C46.7476 43.7434 46.8107 44.2162 46.9052 44.7679C47.0156 45.3196 47.1495 45.8082 47.3072 46.2338C46.4718 45.7294 45.6049 45.0516 44.7064 44.2005C44.5646 43.5542 44.4227 42.6085 44.2808 41.3633C44.1547 40.1023 43.9735 38.9832 43.737 38.006C43.5164 37.0287 43.1775 36.1382 42.7204 35.3343C42.6889 35.287 42.6495 35.2712 42.6022 35.287C42.5707 35.287 42.5391 35.3106 42.5076 35.3579C42.4761 35.4052 42.4682 35.4525 42.484 35.4998C42.5628 35.6889 42.6337 35.8938 42.6968 36.1145C42.7756 36.3352 42.8386 36.5322 42.8859 36.7056C42.9489 36.879 42.9962 37.0996 43.0278 37.3676C43.075 37.6198 43.1144 37.8168 43.146 37.9587C43.1775 38.0848 43.2011 38.3054 43.2169 38.6207C43.2327 38.9202 43.2405 39.1251 43.2405 39.2354C43.2563 39.33 43.2642 39.5506 43.2642 39.8974C43.2799 40.2442 43.2878 40.4491 43.2878 40.5121C43.2878 40.5752 43.2878 40.8037 43.2878 41.1978C43.2878 41.5918 43.2878 41.8046 43.2878 41.8361C43.3351 42.1199 43.3588 42.3957 43.3588 42.6637C41.4358 40.2521 40.2852 37.541 39.9069 34.5304C39.434 30.7948 40.2063 27.2247 42.2239 23.8201C43.8947 20.8726 46.3378 18.5004 49.5533 16.7035C51.9176 15.411 54.4395 14.5914 57.119 14.2447C59.7986 13.8979 62.4545 14.087 65.0868 14.8121C67.719 15.5371 70.0439 16.7823 72.0615 18.5477C73.6534 19.9505 74.9381 21.6292 75.9153 23.5837C76.9083 25.5382 77.5467 27.5872 77.8304 29.7309C78.1299 32.111 78.0117 34.3886 77.4757 36.5637C77.192 35.4919 76.9714 34.7432 76.8137 34.3176ZM67.1674 38.3843C68.0343 34.4122 68.1998 30.913 67.6639 27.8867C66.9388 23.631 65.2601 20.3209 62.6279 17.9566C61.4457 16.869 60.232 16.3252 58.9868 16.3252H58.7977C57.4894 16.4198 56.2127 17.0661 54.9675 18.264C53.9587 19.1782 53.0761 20.384 52.3195 21.8814C51.5629 23.3788 50.9955 25.0732 50.6172 26.9646C49.9394 30.1328 49.837 33.2458 50.3098 36.3037C50.7827 39.5349 51.689 42.0726 53.0288 43.9167C54.3686 45.6978 56.197 46.7303 58.514 47.014H58.9868C59.2075 47.0455 59.5149 47.0613 59.9089 47.0613C61.3748 47.014 62.62 46.5805 63.6445 45.7609C65.205 44.5157 66.3793 42.0568 67.1674 38.3843ZM109.678 18.4531C110.954 20.313 111.616 22.4724 111.664 24.9313C111.758 27.8788 111.049 30.6372 109.536 33.2064L109.299 33.5611C109.236 33.2301 109.079 32.6941 108.826 31.9533C108.826 31.9533 108.811 31.9533 108.779 31.9533C108.779 32.4262 108.811 33.1828 108.874 34.2231C108.306 34.9796 107.786 35.5786 107.313 36.0199C107.25 35.5156 107.219 35.1609 107.219 34.956C107.219 33.9788 107.4 32.7178 107.763 31.1731C107.778 31.0628 107.731 30.984 107.621 30.9367C107.526 30.8736 107.439 30.8894 107.361 30.984C106.777 32.1976 106.439 33.5374 106.344 35.0033C106.297 35.6022 106.297 36.2012 106.344 36.8002C105.745 37.1785 105.343 37.4228 105.138 37.5331C104.35 37.8799 103.814 38.1005 103.53 38.1951C103.593 38.006 103.688 37.7301 103.814 37.3676C103.956 37.0051 104.058 36.7214 104.122 36.5164C105.036 33.8684 105.327 31.6854 104.996 29.9673C104.996 29.92 104.973 29.8964 104.925 29.8964C104.878 29.8964 104.854 29.92 104.854 29.9673C104.902 30.4402 104.902 30.913 104.854 31.3859C104.823 31.843 104.713 32.3474 104.523 32.8991C104.35 33.435 104.2 33.8527 104.074 34.1521C103.964 34.4516 103.751 34.9324 103.436 35.5944C103.136 36.2564 102.947 36.6741 102.868 36.8475C102.364 37.9823 102.088 38.6128 102.041 38.7389C101.269 39.0069 100.733 39.1802 100.433 39.259C100.544 38.7389 100.741 38.1321 101.024 37.4385C101.135 37.1548 101.363 36.611 101.71 35.8072C102.057 34.9875 102.325 34.2861 102.514 33.7029C102.703 33.1197 102.837 32.5365 102.916 31.9533C102.916 31.843 102.853 31.7957 102.727 31.8115C102.695 31.843 102.671 31.8745 102.656 31.906C102.593 32.1267 102.506 32.371 102.396 32.639C102.301 32.9069 102.214 33.1276 102.135 33.301C102.057 33.4744 101.938 33.7187 101.781 34.0339C101.623 34.3334 101.513 34.5462 101.45 34.6723C100.63 36.2012 100.102 37.2336 99.8658 37.7695C99.85 37.8168 99.7554 38.0611 99.582 38.5025C99.4244 38.9438 99.3062 39.2985 99.2274 39.5664C99.1959 39.5664 99.1486 39.5743 99.0855 39.59C99.0225 39.6058 98.9752 39.6137 98.9437 39.6137C97.5093 39.9447 96.2799 40.1338 95.2554 40.1811C95.0347 40.1811 94.7904 40.189 94.5224 40.2048C94.2545 40.2048 93.9944 40.2127 93.7422 40.2284C93.5058 40.2284 93.2615 40.2678 93.0093 40.3466C92.7571 40.4254 92.5364 40.5358 92.3473 40.6776C92.3473 42.1593 92.3788 44.4132 92.4418 47.4396C92.4418 47.8651 92.4103 48.1725 92.3473 48.3616C92.2369 48.6454 92.0793 48.8266 91.8744 48.9054C91.7641 48.6375 91.6852 48.3774 91.638 48.1252C91.4803 47.4474 91.4252 46.8012 91.4725 46.1865C91.4725 46.1707 91.4567 46.1628 91.4252 46.1628C91.3936 46.1628 91.3621 46.1707 91.3306 46.1865C91.173 46.8958 91.0942 47.5578 91.0942 48.1725V49.1419C91.0626 49.1734 90.9996 49.1891 90.905 49.1891H89.1082C90.0381 46.746 90.4085 44.3108 90.2194 41.8834C90.1406 41.0953 89.9987 40.3072 89.7938 39.5191C89.5889 38.731 89.2815 37.7695 88.8717 36.6347C88.4619 35.4998 88.2018 34.7511 88.0915 34.3886C88.0915 34.357 88.0757 34.3492 88.0442 34.3649C88.0127 34.3649 87.9969 34.3886 87.9969 34.4359C88.06 34.893 88.2806 36.0042 88.6589 37.7695C89.0372 39.5349 89.25 40.9062 89.2973 41.8834C89.4234 43.964 89.1003 46.3993 88.3279 49.1891H87.8078C87.8078 48.9842 87.8393 48.6926 87.9024 48.3144C87.9339 48.0779 87.989 47.7154 88.0679 47.2268C88.1467 46.7224 88.2018 46.3441 88.2334 46.0919C88.2649 45.8239 88.2964 45.4457 88.3279 44.957C88.3752 44.4526 88.3752 44.0744 88.3279 43.8222C88.2334 42.8764 88.0284 41.7731 87.7132 40.5121C87.398 39.2512 87.0906 38.1478 86.7911 37.2021C86.5074 36.2406 86.2867 35.153 86.1291 33.9393C85.9715 32.7099 85.9636 31.5672 86.1055 30.5111C86.1212 30.4481 86.1055 30.4008 86.0582 30.3692C86.0267 30.322 85.9794 30.3062 85.9163 30.322C85.869 30.322 85.8375 30.3535 85.8218 30.4165C85.475 32.2922 85.5223 34.562 85.9636 37.2257C86.0267 37.6198 86.1606 38.3133 86.3656 39.3063C86.5862 40.2993 86.7438 41.1663 86.8384 41.9071C86.9487 42.6321 86.996 43.3335 86.9803 44.0113C86.9803 44.6418 86.8699 45.5402 86.6493 46.7066C86.4444 47.8573 86.3261 48.5587 86.2946 48.8109C86.2631 48.9054 86.2473 49.0315 86.2473 49.1891H85.8218C85.7902 49.0473 85.7035 48.732 85.5617 48.2434C85.4356 47.739 85.3568 47.345 85.3253 47.0613C85.1361 45.8003 85.0415 44.5236 85.0415 43.2311C84.9785 39.9683 84.7342 37.5331 84.3086 35.9254C84.2928 35.8781 84.2613 35.8544 84.214 35.8544C84.1667 35.8544 84.1273 35.8702 84.0958 35.9017C84.0643 35.9333 84.0564 35.9727 84.0722 36.0199C84.3559 37.7538 84.3717 40.3545 84.1195 43.8222C84.0091 45.2092 83.9776 46.4387 84.0249 47.5105C84.0879 48.2355 84.151 48.7951 84.214 49.1891H83.1501C83.1501 49.1734 83.1186 49.1025 83.0555 48.9764C83.0082 48.8503 82.9767 48.7478 82.9609 48.669C82.6457 47.6287 82.4644 46.6593 82.4172 45.7609C82.3383 45.2723 82.3305 44.2871 82.3935 42.8055C82.4566 41.3081 82.4802 40.323 82.4644 39.8501C82.4644 39.724 82.4093 39.6689 82.2989 39.6846C82.2201 39.6846 82.1807 39.724 82.1807 39.8028C81.7394 42.2144 81.4951 44.295 81.4478 46.0446C81.4005 46.8958 81.4872 47.8967 81.7079 49.0473C81.1877 48.9685 80.77 48.8187 80.4548 48.5981C80.1395 48.3616 79.9898 48.0464 80.0056 47.6523C80.1632 35.7835 80.1789 25.0968 80.0528 15.5923C80.0528 15.3716 80.1553 15.1746 80.3602 15.0012C80.5651 14.8278 80.8409 14.6939 81.1877 14.5993C81.5502 14.489 81.9285 14.4023 82.3226 14.3392C82.7324 14.2762 83.1816 14.2368 83.6702 14.221C84.1589 14.1895 84.5844 14.1658 84.947 14.1501C85.3253 14.1343 85.7035 14.1264 86.0818 14.1264C86.4759 14.1264 86.7281 14.1264 86.8384 14.1264C93.4427 13.6221 98.9279 13.8348 103.294 14.7648C104.728 15.0958 105.966 15.545 107.006 16.1125C108.062 16.6641 108.953 17.4444 109.678 18.4531ZM100.882 27.2484C100.93 25.8771 100.827 24.4585 100.575 22.9926C99.913 19.6983 98.3999 17.5389 96.0356 16.5144C94.7746 16.0415 93.821 15.9076 93.1748 16.1125C92.8753 16.1913 92.6625 16.3883 92.5364 16.7035C92.5049 16.672 92.4418 16.6562 92.3473 16.6562C92.2212 18.926 92.1266 22.3779 92.0635 27.0119C92.0005 31.3938 91.969 34.6565 91.969 36.8002C91.969 36.9105 91.9611 37.0524 91.9453 37.2257C91.9453 37.3991 91.9453 37.5252 91.9453 37.604C91.9453 37.6671 91.9532 37.7459 91.969 37.8405C92.0005 37.935 92.0478 37.9981 92.1108 38.0296C92.1896 38.0611 92.2842 38.0927 92.3945 38.1242C92.5206 38.1399 92.6861 38.1478 92.891 38.1478C93.6161 38.1478 94.3412 38.0217 95.0662 37.7695C96.6582 37.3124 97.9349 36.2958 98.8964 34.7196C100.11 32.6863 100.772 30.1959 100.882 27.2484ZM143.393 18.4531C144.669 20.313 145.331 22.4724 145.379 24.9313C145.473 27.8788 144.764 30.6372 143.251 33.2064L143.014 33.5611C142.951 33.2301 142.794 32.6941 142.542 31.9533C142.542 31.9533 142.526 31.9533 142.494 31.9533C142.494 32.4262 142.526 33.1828 142.589 34.2231C142.021 34.9796 141.501 35.5786 141.028 36.0199C140.965 35.5156 140.934 35.1609 140.934 34.956C140.934 33.9788 141.115 32.7178 141.478 31.1731C141.493 31.0628 141.446 30.984 141.336 30.9367C141.241 30.8736 141.154 30.8894 141.076 30.984C140.492 32.1976 140.154 33.5374 140.059 35.0033C140.012 35.6022 140.012 36.2012 140.059 36.8002C139.46 37.1785 139.058 37.4228 138.853 37.5331C138.065 37.8799 137.529 38.1005 137.245 38.1951C137.309 38.006 137.403 37.7301 137.529 37.3676C137.671 37.0051 137.774 36.7214 137.837 36.5164C138.751 33.8684 139.042 31.6854 138.711 29.9673C138.711 29.92 138.688 29.8964 138.64 29.8964C138.593 29.8964 138.569 29.92 138.569 29.9673C138.617 30.4402 138.617 30.913 138.569 31.3859C138.538 31.843 138.428 32.3474 138.238 32.8991C138.065 33.435 137.915 33.8527 137.789 34.1521C137.679 34.4516 137.466 34.9324 137.151 35.5944C136.851 36.2564 136.662 36.6741 136.583 36.8475C136.079 37.9823 135.803 38.6128 135.756 38.7389C134.984 39.0069 134.448 39.1802 134.148 39.259C134.259 38.7389 134.456 38.1321 134.739 37.4385C134.85 37.1548 135.078 36.611 135.425 35.8072C135.772 34.9875 136.04 34.2861 136.229 33.7029C136.418 33.1197 136.552 32.5365 136.631 31.9533C136.631 31.843 136.568 31.7957 136.442 31.8115C136.41 31.843 136.386 31.8745 136.371 31.906C136.308 32.1267 136.221 32.371 136.111 32.639C136.016 32.9069 135.929 33.1276 135.851 33.301C135.772 33.4744 135.654 33.7187 135.496 34.0339C135.338 34.3334 135.228 34.5462 135.165 34.6723C134.345 36.2012 133.817 37.2336 133.581 37.7695C133.565 37.8168 133.47 38.0611 133.297 38.5025C133.139 38.9438 133.021 39.2985 132.942 39.5664C132.911 39.5664 132.864 39.5743 132.801 39.59C132.738 39.6058 132.69 39.6137 132.659 39.6137C131.224 39.9447 129.995 40.1338 128.97 40.1811C128.75 40.1811 128.505 40.189 128.237 40.2048C127.97 40.2048 127.709 40.2127 127.457 40.2284C127.221 40.2284 126.976 40.2678 126.724 40.3466C126.472 40.4254 126.251 40.5358 126.062 40.6776C126.062 42.1593 126.094 44.4132 126.157 47.4396C126.157 47.8651 126.125 48.1725 126.062 48.3616C125.952 48.6454 125.794 48.8266 125.589 48.9054C125.479 48.6375 125.4 48.3774 125.353 48.1252C125.195 47.4474 125.14 46.8012 125.188 46.1865C125.188 46.1707 125.172 46.1628 125.14 46.1628C125.109 46.1628 125.077 46.1707 125.046 46.1865C124.888 46.8958 124.809 47.5578 124.809 48.1725V49.1419C124.778 49.1734 124.715 49.1891 124.62 49.1891H122.823C123.753 46.746 124.124 44.3108 123.934 41.8834C123.856 41.0953 123.714 40.3072 123.509 39.5191C123.304 38.731 122.997 37.7695 122.587 36.6347C122.177 35.4998 121.917 34.7511 121.807 34.3886C121.807 34.357 121.791 34.3492 121.759 34.3649C121.728 34.3649 121.712 34.3886 121.712 34.4359C121.775 34.893 121.996 36.0042 122.374 37.7695C122.752 39.5349 122.965 40.9062 123.012 41.8834C123.138 43.964 122.815 46.3993 122.043 49.1891H121.523C121.523 48.9842 121.554 48.6926 121.617 48.3144C121.649 48.0779 121.704 47.7154 121.783 47.2268C121.862 46.7224 121.917 46.3441 121.948 46.0919C121.98 45.8239 122.011 45.4457 122.043 44.957C122.09 44.4526 122.09 44.0744 122.043 43.8222C121.948 42.8764 121.743 41.7731 121.428 40.5121C121.113 39.2512 120.806 38.1478 120.506 37.2021C120.222 36.2406 120.002 35.153 119.844 33.9393C119.687 32.7099 119.679 31.5672 119.821 30.5111C119.836 30.4481 119.821 30.4008 119.773 30.3692C119.742 30.322 119.694 30.3062 119.631 30.322C119.584 30.322 119.553 30.3535 119.537 30.4165C119.19 32.2922 119.237 34.562 119.679 37.2257C119.742 37.6198 119.876 38.3133 120.081 39.3063C120.301 40.2993 120.459 41.1663 120.553 41.9071C120.664 42.6321 120.711 43.3335 120.695 44.0113C120.695 44.6418 120.585 45.5402 120.364 46.7066C120.159 47.8573 120.041 48.5587 120.01 48.8109C119.978 48.9054 119.962 49.0315 119.962 49.1891H119.537C119.505 49.0473 119.419 48.732 119.277 48.2434C119.151 47.739 119.072 47.345 119.04 47.0613C118.851 45.8003 118.757 44.5236 118.757 43.2311C118.694 39.9683 118.449 37.5331 118.024 35.9254C118.008 35.8781 117.976 35.8544 117.929 35.8544C117.882 35.8544 117.842 35.8702 117.811 35.9017C117.779 35.9333 117.771 35.9727 117.787 36.0199C118.071 37.7538 118.087 40.3545 117.835 43.8222C117.724 45.2092 117.693 46.4387 117.74 47.5105C117.803 48.2355 117.866 48.7951 117.929 49.1891H116.865C116.865 49.1734 116.834 49.1025 116.771 48.9764C116.723 48.8503 116.692 48.7478 116.676 48.669C116.361 47.6287 116.179 46.6593 116.132 45.7609C116.053 45.2723 116.046 44.2871 116.109 42.8055C116.172 41.3081 116.195 40.323 116.179 39.8501C116.179 39.724 116.124 39.6689 116.014 39.6846C115.935 39.6846 115.896 39.724 115.896 39.8028C115.454 42.2144 115.21 44.295 115.163 46.0446C115.116 46.8958 115.202 47.8967 115.423 49.0473C114.903 48.9685 114.485 48.8187 114.17 48.5981C113.855 48.3616 113.705 48.0464 113.721 47.6523C113.878 35.7835 113.894 25.0968 113.768 15.5923C113.768 15.3716 113.87 15.1746 114.075 15.0012C114.28 14.8278 114.556 14.6939 114.903 14.5993C115.265 14.489 115.644 14.4023 116.038 14.3392C116.447 14.2762 116.897 14.2368 117.385 14.221C117.874 14.1895 118.299 14.1658 118.662 14.1501C119.04 14.1343 119.419 14.1264 119.797 14.1264C120.191 14.1264 120.443 14.1264 120.553 14.1264C127.158 13.6221 132.643 13.8348 137.009 14.7648C138.443 15.0958 139.681 15.545 140.721 16.1125C141.777 16.6641 142.668 17.4444 143.393 18.4531ZM134.597 27.2484C134.645 25.8771 134.542 24.4585 134.29 22.9926C133.628 19.6983 132.115 17.5389 129.751 16.5144C128.49 16.0415 127.536 15.9076 126.89 16.1125C126.59 16.1913 126.378 16.3883 126.251 16.7035C126.22 16.672 126.157 16.6562 126.062 16.6562C125.936 18.926 125.842 22.3779 125.779 27.0119C125.716 31.3938 125.684 34.6565 125.684 36.8002C125.684 36.9105 125.676 37.0524 125.66 37.2257C125.66 37.3991 125.66 37.5252 125.66 37.604C125.66 37.6671 125.668 37.7459 125.684 37.8405C125.716 37.935 125.763 37.9981 125.826 38.0296C125.905 38.0611 125.999 38.0927 126.11 38.1242C126.236 38.1399 126.401 38.1478 126.606 38.1478C127.331 38.1478 128.056 38.0217 128.781 37.7695C130.373 37.3124 131.65 36.2958 132.611 34.7196C133.825 32.6863 134.487 30.1959 134.597 27.2484ZM184.437 34.3176C184.421 34.2704 184.382 34.2467 184.319 34.2467C184.272 34.2309 184.224 34.2467 184.177 34.294C184.13 34.3255 184.114 34.3728 184.13 34.4359C184.461 35.9017 184.626 37.1863 184.626 38.2897C184.216 39.3773 183.83 40.2363 183.468 40.8668C183.452 40.5673 183.365 39.858 183.208 38.7389C183.192 38.597 183.152 38.2976 183.089 37.8405C183.026 37.3676 182.979 37.0445 182.948 36.8711C182.932 36.6977 182.9 36.4061 182.853 35.9963C182.806 35.5707 182.774 35.2476 182.758 35.0269C182.743 34.7905 182.727 34.491 182.711 34.1285C182.711 33.7502 182.719 33.4271 182.735 33.1591C182.751 32.8912 182.774 32.5917 182.806 32.2607C182.853 31.9297 182.908 31.6144 182.971 31.315C182.987 31.2677 182.979 31.2362 182.948 31.2204C182.932 31.1889 182.9 31.181 182.853 31.1968C182.821 31.1968 182.798 31.2204 182.782 31.2677C182.262 32.8439 182.065 35.1373 182.191 38.1478C182.238 39.3142 182.238 40.4806 182.191 41.647C182.191 41.978 182.159 42.4272 182.096 42.9947C181.765 43.4202 181.395 43.8379 180.985 44.2477C180.985 43.6803 180.922 42.8843 180.796 41.8598C180.686 40.8195 180.623 40.1338 180.607 39.8028C180.544 38.9832 180.631 37.8247 180.867 36.3273C181.119 34.8141 181.261 33.9236 181.293 33.6556C181.387 32.5208 181.3 31.4411 181.032 30.4165C180.922 29.9594 180.709 29.3132 180.394 28.4778C180.095 27.6266 179.921 27.1223 179.874 26.9646C179.858 26.9016 179.819 26.8779 179.756 26.8937C179.708 26.8937 179.685 26.9331 179.685 27.0119C179.748 27.2484 179.842 27.5872 179.969 28.0286C180.11 28.4699 180.229 28.8797 180.323 29.258C180.418 29.6205 180.497 29.9673 180.56 30.2983C180.749 31.244 180.733 32.4104 180.512 33.7975C180.465 34.0812 180.268 34.9087 179.921 36.28C179.59 37.6513 179.417 38.7153 179.401 39.4718C179.37 40.0393 179.37 40.851 179.401 41.9071C179.448 42.9474 179.464 43.6961 179.448 44.1532C179.448 44.7679 179.385 45.3196 179.259 45.8082C178.55 46.3441 177.612 46.8879 176.446 47.4396C176.919 46.415 177.155 45.4535 177.155 44.5551C177.171 44.2871 177.179 43.7749 177.179 43.0183C177.179 42.246 177.194 41.6549 177.226 41.2451C177.273 40.8668 177.352 40.4727 177.462 40.0629C177.573 39.6373 177.707 39.1802 177.864 38.6916C178.038 38.1872 178.164 37.8011 178.243 37.5331C179.094 34.8378 179.007 32.5286 177.983 30.6057C177.951 30.5111 177.896 30.4953 177.817 30.5584C177.786 30.5899 177.778 30.6214 177.793 30.653C178.408 32.4341 178.235 34.625 177.273 37.2257C177.194 37.4622 177.06 37.8011 176.871 38.2424C176.698 38.668 176.548 39.062 176.422 39.4245C176.296 39.7713 176.201 40.1102 176.138 40.4412C176.012 41.1032 175.918 42.0805 175.855 43.3729C175.807 44.7285 175.516 45.9264 174.98 46.9667C174.633 47.6602 174.326 48.1252 174.058 48.3616C173.727 48.4877 173.309 48.6059 172.805 48.7163C172.616 48.7163 172.489 48.7478 172.426 48.8109C169.227 49.5517 165.932 49.6147 162.544 49C162.086 48.7163 161.566 48.3144 160.983 47.7942C159.88 46.8012 159.092 45.619 158.619 44.2477C158.367 43.6015 158.13 42.6637 157.91 41.4342C157.689 40.189 157.539 39.4167 157.46 39.1172C157.303 38.4394 156.956 37.5173 156.42 36.3509C155.9 35.1688 155.569 34.3807 155.427 33.9866C155.411 33.8921 155.356 33.8605 155.262 33.8921C155.183 33.9078 155.143 33.9551 155.143 34.0339C155.222 34.3649 155.482 35.2082 155.924 36.5637C156.381 37.9035 156.649 38.9517 156.727 39.7083C156.759 39.9762 156.798 40.4333 156.846 41.0796C156.893 41.71 156.932 42.1987 156.964 42.5454C157.011 42.8922 157.082 43.3178 157.177 43.8222C157.287 44.3265 157.413 44.7915 157.555 45.2171C157.933 46.2259 158.516 47.2268 159.304 48.2198C159.163 48.1567 158.918 48.07 158.572 47.9597C158.241 47.8494 157.996 47.7627 157.839 47.6996C156.814 46.5648 156.184 45.4457 155.947 44.3423C155.837 43.8379 155.734 43.0813 155.64 42.0726C155.561 41.0638 155.474 40.3387 155.38 39.8974C155.317 39.4876 155.206 39.0541 155.049 38.597C154.907 38.1399 154.765 37.7538 154.623 37.4385C154.481 37.1075 154.292 36.6898 154.056 36.1854C153.819 35.6653 153.646 35.2712 153.536 35.0033C152.684 32.9385 152.574 31.0549 153.205 29.3526C153.189 29.3053 153.157 29.2817 153.11 29.2817C152.196 30.8106 151.999 32.6232 152.519 34.7196C152.645 35.1609 152.842 35.752 153.11 36.4928C153.394 37.2179 153.622 37.8956 153.796 38.5261C153.985 39.1566 154.111 39.7556 154.174 40.323C154.19 40.6067 154.213 41.0874 154.245 41.7652C154.292 42.4272 154.324 42.9552 154.339 43.3493C154.371 43.7434 154.434 44.2162 154.529 44.7679C154.639 45.3196 154.773 45.8082 154.931 46.2338C154.095 45.7294 153.228 45.0516 152.33 44.2005C152.188 43.5542 152.046 42.6085 151.904 41.3633C151.778 40.1023 151.597 38.9832 151.36 38.006C151.14 37.0287 150.801 36.1382 150.344 35.3343C150.312 35.287 150.273 35.2712 150.226 35.287C150.194 35.287 150.162 35.3106 150.131 35.3579C150.099 35.4052 150.092 35.4525 150.107 35.4998C150.186 35.6889 150.257 35.8938 150.32 36.1145C150.399 36.3352 150.462 36.5322 150.509 36.7056C150.572 36.879 150.62 37.0996 150.651 37.3676C150.698 37.6198 150.738 37.8168 150.769 37.9587C150.801 38.0848 150.825 38.3054 150.84 38.6207C150.856 38.9202 150.864 39.1251 150.864 39.2354C150.88 39.33 150.888 39.5506 150.888 39.8974C150.903 40.2442 150.911 40.4491 150.911 40.5121C150.911 40.5752 150.911 40.8037 150.911 41.1978C150.911 41.5918 150.911 41.8046 150.911 41.8361C150.958 42.1199 150.982 42.3957 150.982 42.6637C149.059 40.2521 147.909 37.541 147.53 34.5304C147.057 30.7948 147.83 27.2247 149.847 23.8201C151.518 20.8726 153.961 18.5004 157.177 16.7035C159.541 15.411 162.063 14.5914 164.742 14.2447C167.422 13.8979 170.078 14.087 172.71 14.8121C175.342 15.5371 177.667 16.7823 179.685 18.5477C181.277 19.9505 182.561 21.6292 183.539 23.5837C184.532 25.5382 185.17 27.5872 185.454 29.7309C185.753 32.111 185.635 34.3886 185.099 36.5637C184.815 35.4919 184.595 34.7432 184.437 34.3176ZM174.791 38.3843C175.658 34.4122 175.823 30.913 175.287 27.8867C174.562 23.631 172.884 20.3209 170.251 17.9566C169.069 16.869 167.855 16.3252 166.61 16.3252H166.421C165.113 16.4198 163.836 17.0661 162.591 18.264C161.582 19.1782 160.699 20.384 159.943 21.8814C159.186 23.3788 158.619 25.0732 158.241 26.9646C157.563 30.1328 157.46 33.2458 157.933 36.3037C158.406 39.5349 159.312 42.0726 160.652 43.9167C161.992 45.6978 163.82 46.7303 166.137 47.014H166.61C166.831 47.0455 167.138 47.0613 167.532 47.0613C168.998 47.014 170.243 46.5805 171.268 45.7609C172.828 44.5157 174.003 42.0568 174.791 38.3843Z" fill="url(#paint0_linear_174_1249)"/>
</g>
<path d="M34.8263 34.7862C34.8263 36.7092 34.18 38.4666 32.8875 40.0586V39.3729C32.8875 38.0489 32.5959 36.8589 32.0127 35.8028C31.9812 35.7398 31.9261 35.7319 31.8472 35.7792C31.8157 35.795 31.8078 35.8186 31.8236 35.8501C32.1546 36.8274 32.2649 38.0016 32.1546 39.3729C32.0285 40.1138 31.9182 40.697 31.8236 41.1225V41.2171C31.7448 41.2959 31.6108 41.4141 31.4217 41.5718C31.2483 41.7136 31.1222 41.8239 31.0434 41.9028C31.0907 40.894 31.0749 40.0034 30.9961 39.2311C30.9488 38.8213 30.8621 38.2617 30.736 37.5524C30.6099 36.8431 30.5075 36.2678 30.4287 35.8265C30.3656 35.3694 30.342 34.8335 30.3577 34.2187C30.3735 33.5883 30.4523 33.0051 30.5942 32.4692C30.6099 32.3431 30.5784 32.2485 30.4996 32.1854C30.4208 32.1066 30.3262 32.0751 30.2159 32.0909C30.1213 32.0909 30.0583 32.146 30.0267 32.2564C29.8691 32.7765 29.7667 33.3518 29.7194 33.9823C29.6721 34.6128 29.6563 35.1172 29.6721 35.4955C29.6878 35.8738 29.7272 36.4648 29.7903 37.2687C29.8691 38.0726 29.9164 38.6006 29.9322 38.8528C29.9794 39.8773 29.8612 41.0674 29.5775 42.4229C29.5775 42.4702 29.5696 42.549 29.5539 42.6593C29.5381 42.7539 29.5302 42.8248 29.5302 42.8721C29.4357 42.9194 29.2938 42.9903 29.1046 43.0849C28.9313 43.1795 28.7973 43.2504 28.7027 43.2977C28.6554 43.1716 28.5924 43.0455 28.5136 42.9194C28.2456 42.2416 28.0722 41.6427 27.9934 41.1225C27.757 40.0507 27.7728 38.7897 28.0407 37.3396C28.3244 36.2363 28.419 35.0935 28.3244 33.9114C28.2456 32.7135 27.891 31.6338 27.2605 30.6723C27.1974 30.5777 27.1186 30.5777 27.0241 30.6723C26.961 30.7196 26.9452 30.7826 26.9768 30.8614C27.6861 32.0909 27.9225 33.3834 27.6861 34.7389C27.623 35.1802 27.4575 35.8028 27.1896 36.6067C26.9216 37.4106 26.7482 38.0095 26.6694 38.4036C26.4172 39.6015 26.4015 40.7521 26.6221 41.8555C26.7167 42.5332 26.9295 43.211 27.2605 43.8888C25.8104 44.3616 24.6361 44.669 23.7377 44.8109V43.8888C23.785 43.148 24.1238 41.8555 24.7543 40.0113C25.0538 39.1286 25.2666 38.4824 25.3927 38.0726C25.5188 37.647 25.6528 37.0402 25.7946 36.2521C25.9365 35.464 25.9444 34.7547 25.8183 34.1242C25.6922 33.4937 25.4478 32.9026 25.0853 32.3509C25.0538 32.3037 25.0065 32.2879 24.9435 32.3037C24.8962 32.3037 24.8568 32.3273 24.8252 32.3746C24.8095 32.4219 24.8174 32.4692 24.8489 32.5164C25.1011 32.942 25.2666 33.3991 25.3454 33.8877C25.4242 34.3764 25.44 34.8256 25.3927 35.2354C25.3454 35.6452 25.2272 36.126 25.038 36.6776C24.8647 37.2293 24.6913 37.6864 24.5179 38.0489C24.3603 38.3957 24.1396 38.8528 23.8559 39.4202C23.5879 39.9719 23.3988 40.3817 23.2884 40.6497C22.5792 42.2889 22.2245 43.6287 22.2245 44.669C22.2245 44.8266 22.2403 44.9527 22.2718 45.0473C20.6168 45.268 18.5519 45.4098 16.0773 45.4729C14.8321 45.5044 12.9722 45.4886 10.4975 45.4256C10.4502 45.1419 10.3872 44.3222 10.3084 42.9667C10.3084 42.5254 10.3242 41.7136 10.3557 40.5315C10.403 39.3493 10.4187 38.4351 10.403 37.7889C10.3557 34.8571 9.69367 31.5471 8.41694 27.8588L8.32237 27.8351V27.8588C9.31538 31.7835 9.68579 35.2827 9.43359 38.3563C9.40207 38.6715 9.31538 39.4518 9.17352 40.697C9.04742 41.9422 8.97649 42.8958 8.96073 43.5578C8.96073 44.3459 8.99226 44.9527 9.0553 45.3783C8.89768 45.3625 8.66125 45.3468 8.34601 45.331C8.04653 45.3152 7.81798 45.2995 7.66036 45.2837V45.2364C7.56579 44.5744 7.55003 43.5893 7.61308 42.281C7.6446 41.9658 7.76282 41.1068 7.96772 39.7039C8.17263 38.3011 8.27508 37.2135 8.27508 36.4412C8.25932 35.4324 8.13322 34.266 7.89679 32.942C7.67612 31.618 7.44757 30.4674 7.21114 29.4901C6.99047 28.4971 6.81709 27.3386 6.691 26.0146C6.58066 24.6906 6.64371 23.5163 6.88014 22.4918C6.91166 22.3499 6.84862 22.2632 6.691 22.2317C6.5649 22.2002 6.49397 22.2396 6.47821 22.3499C5.95806 24.2729 5.89501 26.6451 6.28906 29.4665C6.32059 29.7029 6.3994 30.2704 6.52549 31.1688C6.66735 32.0672 6.76192 32.7214 6.80921 33.1312C6.87226 33.541 6.91955 34.1005 6.95107 34.8098C6.99836 35.5034 7.00624 36.1417 6.97471 36.7249C6.92743 37.4184 6.77769 38.4509 6.52549 39.8222C6.28906 41.1935 6.1472 42.2259 6.09992 42.9194C6.02111 43.5341 6.00535 44.3065 6.05263 45.2364H4.6104C4.46854 44.6059 4.39762 44.1567 4.39762 43.8888C4.36609 42.8958 4.51583 41.359 4.84683 39.2784C4.8626 39.168 4.90988 38.8528 4.98869 38.3326C5.08327 37.8125 5.13843 37.4736 5.15419 37.316C5.18572 37.1584 5.233 36.8431 5.29605 36.3703C5.37486 35.8816 5.41427 35.5349 5.41427 35.33C5.43003 35.1093 5.44579 34.7941 5.46155 34.3843C5.49308 33.9587 5.49308 33.6119 5.46155 33.344C5.43003 33.076 5.39063 32.7608 5.34334 32.3982C5.31181 32.0357 5.24877 31.7047 5.15419 31.4052C5.07538 31.09 4.97293 30.7826 4.84683 30.4831C4.84683 30.4516 4.83107 30.4437 4.79955 30.4595C4.76802 30.4595 4.75226 30.4831 4.75226 30.5304C4.92564 31.1136 5.02022 31.7283 5.03598 32.3746C5.0675 33.0051 5.02022 33.675 4.89412 34.3843C4.78379 35.0935 4.66557 35.7083 4.53947 36.2284C4.42914 36.7328 4.25576 37.3948 4.01933 38.2144C3.79866 39.0341 3.64104 39.633 3.54646 40.0113C3.04208 42.1865 2.86081 43.8809 3.00267 45.0946C1.63137 44.9212 0.969367 44.4404 1.01665 43.6523C1.17427 31.7835 1.19004 21.0968 1.06394 11.5923C1.06394 11.3716 1.16639 11.1746 1.3713 11.0012C1.57621 10.8278 1.85204 10.6939 2.19881 10.5993C2.56134 10.489 2.93962 10.4023 3.33368 10.3392C3.74349 10.2762 4.19271 10.2368 4.68133 10.221C5.16996 10.1895 5.59553 10.1658 5.95806 10.1501C6.33635 10.1343 6.71464 10.1264 7.09293 10.1264C7.48698 10.1264 7.73917 10.1264 7.84951 10.1264C10.6236 9.89001 13.4135 9.79543 16.2192 9.84272C17.9845 9.89001 19.9863 10.0713 22.2245 10.3865C24.7464 10.7648 26.5906 11.3401 27.757 12.1125C29.0495 12.9636 29.9322 14.13 30.405 15.6116C30.8936 17.0775 30.9567 18.6064 30.5942 20.1984C30.2474 21.68 29.5302 23.0198 28.4426 24.2177C27.3551 25.4156 26.0705 26.3692 24.5888 27.0785C25.6922 27.1258 26.8428 27.2756 28.0407 27.5278C29.9637 27.9533 31.5714 28.8045 32.8639 30.0812C34.1722 31.3579 34.8263 32.9263 34.8263 34.7862ZM13.3583 12.6562C13.1062 17.7789 12.9801 22.5863 12.9801 27.0785C14.903 27.0312 16.5108 26.3141 17.8032 24.927C19.1115 23.5242 19.7656 21.8376 19.7656 19.8674C19.7656 18.0548 19.1509 16.4628 17.9215 15.0915C16.692 13.7044 15.171 12.8927 13.3583 12.6562ZM19.3637 41.7136C20.8926 40.8152 21.9171 39.4912 22.4373 37.7416C22.9732 35.992 22.855 34.3291 22.0826 32.7529C21.3103 31.0979 19.9863 30.0182 18.1106 29.5138C17.7008 29.4034 17.157 29.3089 16.4792 29.2301C15.8015 29.1512 15.0922 29.1512 14.3514 29.2301C13.6105 29.2931 13.1692 29.4822 13.0273 29.7975C12.9958 29.8448 12.9801 29.9236 12.9801 30.0339C12.9801 30.1285 12.9879 30.2467 13.0037 30.3886C13.0195 30.5147 13.0273 30.5935 13.0273 30.625C13.0589 31.2082 13.0746 32.0909 13.0746 33.273C13.0746 33.604 13.0667 34.0848 13.051 34.7153C13.051 35.33 13.051 35.8974 13.051 36.4176C13.051 36.9219 13.0589 37.3948 13.0746 37.8361C13.0746 38.0568 13.051 38.4824 13.0037 39.1129C12.9722 39.7434 12.9643 40.295 12.9801 40.7679C12.9958 41.2407 13.0589 41.6506 13.1692 41.9973C13.3899 42.6751 14.438 42.9036 16.3137 42.683C17.4171 42.5884 18.4337 42.2653 19.3637 41.7136ZM73.8137 30.3176C73.798 30.2704 73.7586 30.2467 73.6955 30.2467C73.6482 30.2309 73.6009 30.2467 73.5537 30.294C73.5064 30.3255 73.4906 30.3728 73.5064 30.4359C73.8374 31.9017 74.0029 33.1863 74.0029 34.2897C73.5931 35.3773 73.2069 36.2363 72.8444 36.8668C72.8286 36.5673 72.7419 35.858 72.5843 34.7389C72.5685 34.597 72.5291 34.2976 72.4661 33.8405C72.403 33.3676 72.3557 33.0445 72.3242 32.8711C72.3085 32.6977 72.2769 32.4061 72.2296 31.9963C72.1824 31.5707 72.1508 31.2476 72.1351 31.0269C72.1193 30.7905 72.1036 30.491 72.0878 30.1285C72.0878 29.7502 72.0957 29.4271 72.1114 29.1591C72.1272 28.8912 72.1508 28.5917 72.1824 28.2607C72.2296 27.9297 72.2848 27.6144 72.3479 27.315C72.3636 27.2677 72.3557 27.2362 72.3242 27.2204C72.3085 27.1889 72.2769 27.181 72.2296 27.1968C72.1981 27.1968 72.1745 27.2204 72.1587 27.2677C71.6386 28.8439 71.4415 31.1373 71.5676 34.1478C71.6149 35.3142 71.6149 36.4806 71.5676 37.647C71.5676 37.978 71.5361 38.4272 71.4731 38.9947C71.1421 39.4202 70.7717 39.8379 70.3618 40.2477C70.3618 39.6803 70.2988 38.8843 70.1727 37.8598C70.0624 36.8195 69.9993 36.1338 69.9836 35.8028C69.9205 34.9832 70.0072 33.8247 70.2436 32.3273C70.4958 30.8141 70.6377 29.9236 70.6692 29.6556C70.7638 28.5208 70.6771 27.4411 70.4091 26.4165C70.2988 25.9594 70.086 25.3132 69.7708 24.4778C69.4713 23.6266 69.2979 23.1223 69.2506 22.9646C69.2349 22.9016 69.1955 22.8779 69.1324 22.8937C69.0851 22.8937 69.0615 22.9331 69.0615 23.0119C69.1245 23.2484 69.2191 23.5872 69.3452 24.0286C69.4871 24.4699 69.6053 24.8797 69.6998 25.258C69.7944 25.6205 69.8732 25.9673 69.9363 26.2983C70.1254 27.244 70.1097 28.4104 69.889 29.7975C69.8417 30.0812 69.6447 30.9087 69.2979 32.28C68.9669 33.6513 68.7935 34.7153 68.7778 35.4718C68.7462 36.0393 68.7462 36.851 68.7778 37.9071C68.825 38.9474 68.8408 39.6961 68.825 40.1532C68.825 40.7679 68.762 41.3196 68.6359 41.8082C67.9266 42.3441 66.9888 42.8879 65.8224 43.4396C66.2952 42.415 66.5317 41.4535 66.5317 40.5551C66.5474 40.2871 66.5553 39.7749 66.5553 39.0183C66.5553 38.246 66.5711 37.6549 66.6026 37.2451C66.6499 36.8668 66.7287 36.4727 66.839 36.0629C66.9494 35.6373 67.0833 35.1802 67.241 34.6916C67.4143 34.1872 67.5404 33.8011 67.6192 33.5331C68.4704 30.8378 68.3837 28.5286 67.3592 26.6057C67.3276 26.5111 67.2725 26.4953 67.1937 26.5584C67.1621 26.5899 67.1543 26.6214 67.17 26.653C67.7847 28.4341 67.6114 30.625 66.6499 33.2257C66.5711 33.4622 66.4371 33.8011 66.2479 34.2424C66.0746 34.668 65.9248 35.062 65.7987 35.4245C65.6726 35.7713 65.5781 36.1102 65.515 36.4412C65.3889 37.1032 65.2943 38.0805 65.2313 39.3729C65.184 40.7285 64.8924 41.9264 64.3565 42.9667C64.0097 43.6602 63.7024 44.1252 63.4344 44.3616C63.1034 44.4877 62.6857 44.6059 62.1813 44.7163C61.9922 44.7163 61.8661 44.7478 61.803 44.8109C58.6033 45.5517 55.3091 45.6147 51.9202 45C51.4631 44.7163 50.943 44.3144 50.3598 43.7942C49.2564 42.8012 48.4683 41.619 47.9955 40.2477C47.7433 39.6015 47.5069 38.6637 47.2862 37.4342C47.0655 36.189 46.9158 35.4167 46.837 35.1172C46.6793 34.4394 46.3326 33.5173 45.7967 32.3509C45.2765 31.1688 44.9455 30.3807 44.8037 29.9866C44.7879 29.8921 44.7327 29.8605 44.6382 29.8921C44.5593 29.9078 44.5199 29.9551 44.5199 30.0339C44.5988 30.3649 44.8588 31.2082 45.3002 32.5637C45.7573 33.9035 46.0252 34.9517 46.104 35.7083C46.1356 35.9762 46.175 36.4333 46.2222 37.0796C46.2695 37.71 46.3089 38.1987 46.3405 38.5454C46.3877 38.8922 46.4587 39.3178 46.5533 39.8222C46.6636 40.3265 46.7897 40.7915 46.9315 41.2171C47.3098 42.2259 47.893 43.2268 48.6811 44.2198C48.5393 44.1567 48.295 44.07 47.9482 43.9597C47.6172 43.8494 47.3729 43.7627 47.2153 43.6996C46.1907 42.5648 45.5602 41.4457 45.3238 40.3423C45.2135 39.8379 45.111 39.0813 45.0164 38.0726C44.9376 37.0638 44.8509 36.3387 44.7564 35.8974C44.6933 35.4876 44.583 35.0541 44.4254 34.597C44.2835 34.1399 44.1417 33.7538 43.9998 33.4385C43.8579 33.1075 43.6688 32.6898 43.4324 32.1854C43.1959 31.6653 43.0225 31.2712 42.9122 31.0033C42.0611 28.9385 41.9507 27.0549 42.5812 25.3526C42.5654 25.3053 42.5339 25.2817 42.4866 25.2817C41.5724 26.8106 41.3754 28.6232 41.8956 30.7196C42.0217 31.1609 42.2187 31.752 42.4866 32.4928C42.7704 33.2179 42.9989 33.8956 43.1723 34.5261C43.3614 35.1566 43.4875 35.7556 43.5506 36.323C43.5663 36.6067 43.59 37.0874 43.6215 37.7652C43.6688 38.4272 43.7003 38.9552 43.7161 39.3493C43.7476 39.7434 43.8107 40.2162 43.9052 40.7679C44.0156 41.3196 44.1495 41.8082 44.3072 42.2338C43.4718 41.7294 42.6049 41.0516 41.7064 40.2005C41.5646 39.5542 41.4227 38.6085 41.2808 37.3633C41.1547 36.1023 40.9735 34.9832 40.737 34.006C40.5164 33.0287 40.1775 32.1382 39.7204 31.3343C39.6889 31.287 39.6495 31.2712 39.6022 31.287C39.5707 31.287 39.5391 31.3106 39.5076 31.3579C39.4761 31.4052 39.4682 31.4525 39.484 31.4998C39.5628 31.6889 39.6337 31.8938 39.6968 32.1145C39.7756 32.3352 39.8386 32.5322 39.8859 32.7056C39.9489 32.879 39.9962 33.0996 40.0278 33.3676C40.075 33.6198 40.1144 33.8168 40.146 33.9587C40.1775 34.0848 40.2011 34.3054 40.2169 34.6207C40.2327 34.9202 40.2405 35.1251 40.2405 35.2354C40.2563 35.33 40.2642 35.5506 40.2642 35.8974C40.2799 36.2442 40.2878 36.4491 40.2878 36.5121C40.2878 36.5752 40.2878 36.8037 40.2878 37.1978C40.2878 37.5918 40.2878 37.8046 40.2878 37.8361C40.3351 38.1199 40.3588 38.3957 40.3588 38.6637C38.4358 36.2521 37.2852 33.541 36.9069 30.5304C36.434 26.7948 37.2063 23.2247 39.2239 19.8201C40.8947 16.8726 43.3378 14.5004 46.5533 12.7035C48.9176 11.411 51.4395 10.5914 54.119 10.2447C56.7986 9.89789 59.4545 10.087 62.0868 10.8121C64.719 11.5371 67.0439 12.7823 69.0615 14.5477C70.6534 15.9505 71.9381 17.6292 72.9153 19.5837C73.9083 21.5382 74.5467 23.5872 74.8304 25.7309C75.1299 28.111 75.0117 30.3886 74.4757 32.5637C74.192 31.4919 73.9714 30.7432 73.8137 30.3176ZM64.1674 34.3843C65.0343 30.4122 65.1998 26.913 64.6639 23.8867C63.9388 19.631 62.2601 16.3209 59.6279 13.9566C58.4457 12.869 57.232 12.3252 55.9868 12.3252H55.7977C54.4894 12.4198 53.2127 13.0661 51.9675 14.264C50.9587 15.1782 50.0761 16.384 49.3195 17.8814C48.5629 19.3788 47.9955 21.0732 47.6172 22.9646C46.9394 26.1328 46.837 29.2458 47.3098 32.3037C47.7827 35.5349 48.689 38.0726 50.0288 39.9167C51.3686 41.6978 53.197 42.7303 55.514 43.014H55.9868C56.2075 43.0455 56.5149 43.0613 56.9089 43.0613C58.3748 43.014 59.62 42.5805 60.6445 41.7609C62.205 40.5157 63.3793 38.0568 64.1674 34.3843ZM106.678 14.4531C107.954 16.313 108.616 18.4724 108.664 20.9313C108.758 23.8788 108.049 26.6372 106.536 29.2064L106.299 29.5611C106.236 29.2301 106.079 28.6941 105.826 27.9533C105.826 27.9533 105.811 27.9533 105.779 27.9533C105.779 28.4262 105.811 29.1828 105.874 30.2231C105.306 30.9796 104.786 31.5786 104.313 32.0199C104.25 31.5156 104.219 31.1609 104.219 30.956C104.219 29.9788 104.4 28.7178 104.763 27.1731C104.778 27.0628 104.731 26.984 104.621 26.9367C104.526 26.8736 104.439 26.8894 104.361 26.984C103.777 28.1976 103.439 29.5374 103.344 31.0033C103.297 31.6022 103.297 32.2012 103.344 32.8002C102.745 33.1785 102.343 33.4228 102.138 33.5331C101.35 33.8799 100.814 34.1005 100.53 34.1951C100.593 34.006 100.688 33.7301 100.814 33.3676C100.956 33.0051 101.058 32.7214 101.122 32.5164C102.036 29.8684 102.327 27.6854 101.996 25.9673C101.996 25.92 101.973 25.8964 101.925 25.8964C101.878 25.8964 101.854 25.92 101.854 25.9673C101.902 26.4402 101.902 26.913 101.854 27.3859C101.823 27.843 101.713 28.3474 101.523 28.8991C101.35 29.435 101.2 29.8527 101.074 30.1521C100.964 30.4516 100.751 30.9324 100.436 31.5944C100.136 32.2564 99.9472 32.6741 99.8684 32.8475C99.364 33.9823 99.0882 34.6128 99.0409 34.7389C98.2686 35.0069 97.7327 35.1802 97.4332 35.259C97.5435 34.7389 97.7406 34.1321 98.0243 33.4385C98.1346 33.1548 98.3632 32.611 98.7099 31.8072C99.0567 30.9875 99.3246 30.2861 99.5138 29.7029C99.7029 29.1197 99.8369 28.5365 99.9157 27.9533C99.9157 27.843 99.8527 27.7957 99.7266 27.8115C99.695 27.843 99.6714 27.8745 99.6556 27.906C99.5926 28.1267 99.5059 28.371 99.3956 28.639C99.301 28.9069 99.2143 29.1276 99.1355 29.301C99.0567 29.4744 98.9385 29.7187 98.7808 30.0339C98.6232 30.3334 98.5129 30.5462 98.4498 30.6723C97.6302 32.2012 97.1022 33.2336 96.8658 33.7695C96.85 33.8168 96.7554 34.0611 96.582 34.5025C96.4244 34.9438 96.3062 35.2985 96.2274 35.5664C96.1959 35.5664 96.1486 35.5743 96.0855 35.59C96.0225 35.6058 95.9752 35.6137 95.9437 35.6137C94.5093 35.9447 93.2799 36.1338 92.2554 36.1811C92.0347 36.1811 91.7904 36.189 91.5224 36.2048C91.2545 36.2048 90.9944 36.2127 90.7422 36.2284C90.5058 36.2284 90.2615 36.2678 90.0093 36.3466C89.7571 36.4254 89.5364 36.5358 89.3473 36.6776C89.3473 38.1593 89.3788 40.4132 89.4418 43.4396C89.4418 43.8651 89.4103 44.1725 89.3473 44.3616C89.2369 44.6454 89.0793 44.8266 88.8744 44.9054C88.7641 44.6375 88.6852 44.3774 88.638 44.1252C88.4803 43.4474 88.4252 42.8012 88.4725 42.1865C88.4725 42.1707 88.4567 42.1628 88.4252 42.1628C88.3936 42.1628 88.3621 42.1707 88.3306 42.1865C88.173 42.8958 88.0942 43.5578 88.0942 44.1725V45.1419C88.0626 45.1734 87.9996 45.1891 87.905 45.1891H86.1082C87.0381 42.746 87.4085 40.3108 87.2194 37.8834C87.1406 37.0953 86.9987 36.3072 86.7938 35.5191C86.5889 34.731 86.2815 33.7695 85.8717 32.6347C85.4619 31.4998 85.2018 30.7511 85.0915 30.3886C85.0915 30.357 85.0757 30.3492 85.0442 30.3649C85.0127 30.3649 84.9969 30.3886 84.9969 30.4359C85.06 30.893 85.2806 32.0042 85.6589 33.7695C86.0372 35.5349 86.25 36.9062 86.2973 37.8834C86.4234 39.964 86.1003 42.3993 85.3279 45.1891H84.8078C84.8078 44.9842 84.8393 44.6926 84.9024 44.3144C84.9339 44.0779 84.989 43.7154 85.0679 43.2268C85.1467 42.7224 85.2018 42.3441 85.2334 42.0919C85.2649 41.8239 85.2964 41.4457 85.3279 40.957C85.3752 40.4526 85.3752 40.0744 85.3279 39.8222C85.2334 38.8764 85.0284 37.7731 84.7132 36.5121C84.398 35.2512 84.0906 34.1478 83.7911 33.2021C83.5074 32.2406 83.2867 31.153 83.1291 29.9393C82.9715 28.7099 82.9636 27.5672 83.1055 26.5111C83.1212 26.4481 83.1055 26.4008 83.0582 26.3692C83.0267 26.322 82.9794 26.3062 82.9163 26.322C82.869 26.322 82.8375 26.3535 82.8218 26.4165C82.475 28.2922 82.5223 30.562 82.9636 33.2257C83.0267 33.6198 83.1606 34.3133 83.3656 35.3063C83.5862 36.2993 83.7438 37.1663 83.8384 37.9071C83.9487 38.6321 83.996 39.3335 83.9803 40.0113C83.9803 40.6418 83.8699 41.5402 83.6493 42.7066C83.4444 43.8573 83.3261 44.5587 83.2946 44.8109C83.2631 44.9054 83.2473 45.0315 83.2473 45.1891H82.8218C82.7902 45.0473 82.7035 44.732 82.5617 44.2434C82.4356 43.739 82.3568 43.345 82.3253 43.0613C82.1361 41.8003 82.0415 40.5236 82.0415 39.2311C81.9785 35.9683 81.7342 33.5331 81.3086 31.9254C81.2928 31.8781 81.2613 31.8544 81.214 31.8544C81.1667 31.8544 81.1273 31.8702 81.0958 31.9017C81.0643 31.9333 81.0564 31.9727 81.0722 32.0199C81.3559 33.7538 81.3717 36.3545 81.1195 39.8222C81.0091 41.2092 80.9776 42.4387 81.0249 43.5105C81.0879 44.2355 81.151 44.7951 81.214 45.1891H80.1501C80.1501 45.1734 80.1186 45.1025 80.0555 44.9764C80.0082 44.8503 79.9767 44.7478 79.9609 44.669C79.6457 43.6287 79.4644 42.6593 79.4172 41.7609C79.3383 41.2723 79.3305 40.2871 79.3935 38.8055C79.4566 37.3081 79.4802 36.323 79.4644 35.8501C79.4644 35.724 79.4093 35.6689 79.2989 35.6846C79.2201 35.6846 79.1807 35.724 79.1807 35.8028C78.7394 38.2144 78.4951 40.295 78.4478 42.0446C78.4005 42.8958 78.4872 43.8967 78.7079 45.0473C78.1877 44.9685 77.77 44.8187 77.4548 44.5981C77.1395 44.3616 76.9898 44.0464 77.0056 43.6523C77.1632 31.7835 77.1789 21.0968 77.0528 11.5923C77.0528 11.3716 77.1553 11.1746 77.3602 11.0012C77.5651 10.8278 77.8409 10.6939 78.1877 10.5993C78.5502 10.489 78.9285 10.4023 79.3226 10.3392C79.7324 10.2762 80.1816 10.2368 80.6702 10.221C81.1589 10.1895 81.5844 10.1658 81.947 10.1501C82.3253 10.1343 82.7035 10.1264 83.0818 10.1264C83.4759 10.1264 83.7281 10.1264 83.8384 10.1264C90.4427 9.62205 95.9279 9.83484 100.294 10.7648C101.728 11.0958 102.966 11.545 104.006 12.1125C105.062 12.6641 105.953 13.4444 106.678 14.4531ZM97.8824 23.2484C97.9297 21.8771 97.8272 20.4585 97.5751 18.9926C96.913 15.6983 95.3999 13.5389 93.0356 12.5144C91.7746 12.0415 90.821 11.9076 90.1748 12.1125C89.8753 12.1913 89.6625 12.3883 89.5364 12.7035C89.5049 12.672 89.4418 12.6562 89.3473 12.6562C89.2212 14.926 89.1266 18.3779 89.0635 23.0119C89.0005 27.3938 88.969 30.6565 88.969 32.8002C88.969 32.9105 88.9611 33.0524 88.9453 33.2257C88.9453 33.3991 88.9453 33.5252 88.9453 33.604C88.9453 33.6671 88.9532 33.7459 88.969 33.8405C89.0005 33.935 89.0478 33.9981 89.1108 34.0296C89.1896 34.0611 89.2842 34.0927 89.3945 34.1242C89.5206 34.1399 89.6861 34.1478 89.891 34.1478C90.6161 34.1478 91.3412 34.0217 92.0662 33.7695C93.6582 33.3124 94.9349 32.2958 95.8964 30.7196C97.1101 28.6863 97.7721 26.1959 97.8824 23.2484ZM140.393 14.4531C141.669 16.313 142.331 18.4724 142.379 20.9313C142.473 23.8788 141.764 26.6372 140.251 29.2064L140.014 29.5611C139.951 29.2301 139.794 28.6941 139.542 27.9533C139.542 27.9533 139.526 27.9533 139.494 27.9533C139.494 28.4262 139.526 29.1828 139.589 30.2231C139.021 30.9796 138.501 31.5786 138.028 32.0199C137.965 31.5156 137.934 31.1609 137.934 30.956C137.934 29.9788 138.115 28.7178 138.478 27.1731C138.493 27.0628 138.446 26.984 138.336 26.9367C138.241 26.8736 138.154 26.8894 138.076 26.984C137.492 28.1976 137.154 29.5374 137.059 31.0033C137.012 31.6022 137.012 32.2012 137.059 32.8002C136.46 33.1785 136.058 33.4228 135.853 33.5331C135.065 33.8799 134.529 34.1005 134.245 34.1951C134.309 34.006 134.403 33.7301 134.529 33.3676C134.671 33.0051 134.774 32.7214 134.837 32.5164C135.751 29.8684 136.042 27.6854 135.711 25.9673C135.711 25.92 135.688 25.8964 135.64 25.8964C135.593 25.8964 135.569 25.92 135.569 25.9673C135.617 26.4402 135.617 26.913 135.569 27.3859C135.538 27.843 135.428 28.3474 135.238 28.8991C135.065 29.435 134.915 29.8527 134.789 30.1521C134.679 30.4516 134.466 30.9324 134.151 31.5944C133.851 32.2564 133.662 32.6741 133.583 32.8475C133.079 33.9823 132.803 34.6128 132.756 34.7389C131.984 35.0069 131.448 35.1802 131.148 35.259C131.259 34.7389 131.456 34.1321 131.739 33.4385C131.85 33.1548 132.078 32.611 132.425 31.8072C132.772 30.9875 133.04 30.2861 133.229 29.7029C133.418 29.1197 133.552 28.5365 133.631 27.9533C133.631 27.843 133.568 27.7957 133.442 27.8115C133.41 27.843 133.386 27.8745 133.371 27.906C133.308 28.1267 133.221 28.371 133.111 28.639C133.016 28.9069 132.929 29.1276 132.851 29.301C132.772 29.4744 132.654 29.7187 132.496 30.0339C132.338 30.3334 132.228 30.5462 132.165 30.6723C131.345 32.2012 130.817 33.2336 130.581 33.7695C130.565 33.8168 130.47 34.0611 130.297 34.5025C130.139 34.9438 130.021 35.2985 129.942 35.5664C129.911 35.5664 129.864 35.5743 129.801 35.59C129.738 35.6058 129.69 35.6137 129.659 35.6137C128.224 35.9447 126.995 36.1338 125.97 36.1811C125.75 36.1811 125.505 36.189 125.237 36.2048C124.97 36.2048 124.709 36.2127 124.457 36.2284C124.221 36.2284 123.976 36.2678 123.724 36.3466C123.472 36.4254 123.251 36.5358 123.062 36.6776C123.062 38.1593 123.094 40.4132 123.157 43.4396C123.157 43.8651 123.125 44.1725 123.062 44.3616C122.952 44.6454 122.794 44.8266 122.589 44.9054C122.479 44.6375 122.4 44.3774 122.353 44.1252C122.195 43.4474 122.14 42.8012 122.188 42.1865C122.188 42.1707 122.172 42.1628 122.14 42.1628C122.109 42.1628 122.077 42.1707 122.046 42.1865C121.888 42.8958 121.809 43.5578 121.809 44.1725V45.1419C121.778 45.1734 121.715 45.1891 121.62 45.1891H119.823C120.753 42.746 121.124 40.3108 120.934 37.8834C120.856 37.0953 120.714 36.3072 120.509 35.5191C120.304 34.731 119.997 33.7695 119.587 32.6347C119.177 31.4998 118.917 30.7511 118.807 30.3886C118.807 30.357 118.791 30.3492 118.759 30.3649C118.728 30.3649 118.712 30.3886 118.712 30.4359C118.775 30.893 118.996 32.0042 119.374 33.7695C119.752 35.5349 119.965 36.9062 120.012 37.8834C120.138 39.964 119.815 42.3993 119.043 45.1891H118.523C118.523 44.9842 118.554 44.6926 118.617 44.3144C118.649 44.0779 118.704 43.7154 118.783 43.2268C118.862 42.7224 118.917 42.3441 118.948 42.0919C118.98 41.8239 119.011 41.4457 119.043 40.957C119.09 40.4526 119.09 40.0744 119.043 39.8222C118.948 38.8764 118.743 37.7731 118.428 36.5121C118.113 35.2512 117.806 34.1478 117.506 33.2021C117.222 32.2406 117.002 31.153 116.844 29.9393C116.687 28.7099 116.679 27.5672 116.821 26.5111C116.836 26.4481 116.821 26.4008 116.773 26.3692C116.742 26.322 116.694 26.3062 116.631 26.322C116.584 26.322 116.553 26.3535 116.537 26.4165C116.19 28.2922 116.237 30.562 116.679 33.2257C116.742 33.6198 116.876 34.3133 117.081 35.3063C117.301 36.2993 117.459 37.1663 117.553 37.9071C117.664 38.6321 117.711 39.3335 117.695 40.0113C117.695 40.6418 117.585 41.5402 117.364 42.7066C117.159 43.8573 117.041 44.5587 117.01 44.8109C116.978 44.9054 116.962 45.0315 116.962 45.1891H116.537C116.505 45.0473 116.419 44.732 116.277 44.2434C116.151 43.739 116.072 43.345 116.04 43.0613C115.851 41.8003 115.757 40.5236 115.757 39.2311C115.694 35.9683 115.449 33.5331 115.024 31.9254C115.008 31.8781 114.976 31.8544 114.929 31.8544C114.882 31.8544 114.842 31.8702 114.811 31.9017C114.779 31.9333 114.771 31.9727 114.787 32.0199C115.071 33.7538 115.087 36.3545 114.835 39.8222C114.724 41.2092 114.693 42.4387 114.74 43.5105C114.803 44.2355 114.866 44.7951 114.929 45.1891H113.865C113.865 45.1734 113.834 45.1025 113.771 44.9764C113.723 44.8503 113.692 44.7478 113.676 44.669C113.361 43.6287 113.179 42.6593 113.132 41.7609C113.053 41.2723 113.046 40.2871 113.109 38.8055C113.172 37.3081 113.195 36.323 113.179 35.8501C113.179 35.724 113.124 35.6689 113.014 35.6846C112.935 35.6846 112.896 35.724 112.896 35.8028C112.454 38.2144 112.21 40.295 112.163 42.0446C112.116 42.8958 112.202 43.8967 112.423 45.0473C111.903 44.9685 111.485 44.8187 111.17 44.5981C110.855 44.3616 110.705 44.0464 110.721 43.6523C110.878 31.7835 110.894 21.0968 110.768 11.5923C110.768 11.3716 110.87 11.1746 111.075 11.0012C111.28 10.8278 111.556 10.6939 111.903 10.5993C112.265 10.489 112.644 10.4023 113.038 10.3392C113.447 10.2762 113.897 10.2368 114.385 10.221C114.874 10.1895 115.299 10.1658 115.662 10.1501C116.04 10.1343 116.419 10.1264 116.797 10.1264C117.191 10.1264 117.443 10.1264 117.553 10.1264C124.158 9.62205 129.643 9.83484 134.009 10.7648C135.443 11.0958 136.681 11.545 137.721 12.1125C138.777 12.6641 139.668 13.4444 140.393 14.4531ZM131.597 23.2484C131.645 21.8771 131.542 20.4585 131.29 18.9926C130.628 15.6983 129.115 13.5389 126.751 12.5144C125.49 12.0415 124.536 11.9076 123.89 12.1125C123.59 12.1913 123.378 12.3883 123.251 12.7035C123.22 12.672 123.157 12.6562 123.062 12.6562C122.936 14.926 122.842 18.3779 122.779 23.0119C122.716 27.3938 122.684 30.6565 122.684 32.8002C122.684 32.9105 122.676 33.0524 122.66 33.2257C122.66 33.3991 122.66 33.5252 122.66 33.604C122.66 33.6671 122.668 33.7459 122.684 33.8405C122.716 33.935 122.763 33.9981 122.826 34.0296C122.905 34.0611 122.999 34.0927 123.11 34.1242C123.236 34.1399 123.401 34.1478 123.606 34.1478C124.331 34.1478 125.056 34.0217 125.781 33.7695C127.373 33.3124 128.65 32.2958 129.611 30.7196C130.825 28.6863 131.487 26.1959 131.597 23.2484ZM181.437 30.3176C181.421 30.2704 181.382 30.2467 181.319 30.2467C181.272 30.2309 181.224 30.2467 181.177 30.294C181.13 30.3255 181.114 30.3728 181.13 30.4359C181.461 31.9017 181.626 33.1863 181.626 34.2897C181.216 35.3773 180.83 36.2363 180.468 36.8668C180.452 36.5673 180.365 35.858 180.208 34.7389C180.192 34.597 180.152 34.2976 180.089 33.8405C180.026 33.3676 179.979 33.0445 179.948 32.8711C179.932 32.6977 179.9 32.4061 179.853 31.9963C179.806 31.5707 179.774 31.2476 179.758 31.0269C179.743 30.7905 179.727 30.491 179.711 30.1285C179.711 29.7502 179.719 29.4271 179.735 29.1591C179.751 28.8912 179.774 28.5917 179.806 28.2607C179.853 27.9297 179.908 27.6144 179.971 27.315C179.987 27.2677 179.979 27.2362 179.948 27.2204C179.932 27.1889 179.9 27.181 179.853 27.1968C179.821 27.1968 179.798 27.2204 179.782 27.2677C179.262 28.8439 179.065 31.1373 179.191 34.1478C179.238 35.3142 179.238 36.4806 179.191 37.647C179.191 37.978 179.159 38.4272 179.096 38.9947C178.765 39.4202 178.395 39.8379 177.985 40.2477C177.985 39.6803 177.922 38.8843 177.796 37.8598C177.686 36.8195 177.623 36.1338 177.607 35.8028C177.544 34.9832 177.631 33.8247 177.867 32.3273C178.119 30.8141 178.261 29.9236 178.293 29.6556C178.387 28.5208 178.3 27.4411 178.032 26.4165C177.922 25.9594 177.709 25.3132 177.394 24.4778C177.095 23.6266 176.921 23.1223 176.874 22.9646C176.858 22.9016 176.819 22.8779 176.756 22.8937C176.708 22.8937 176.685 22.9331 176.685 23.0119C176.748 23.2484 176.842 23.5872 176.969 24.0286C177.11 24.4699 177.229 24.8797 177.323 25.258C177.418 25.6205 177.497 25.9673 177.56 26.2983C177.749 27.244 177.733 28.4104 177.512 29.7975C177.465 30.0812 177.268 30.9087 176.921 32.28C176.59 33.6513 176.417 34.7153 176.401 35.4718C176.37 36.0393 176.37 36.851 176.401 37.9071C176.448 38.9474 176.464 39.6961 176.448 40.1532C176.448 40.7679 176.385 41.3196 176.259 41.8082C175.55 42.3441 174.612 42.8879 173.446 43.4396C173.919 42.415 174.155 41.4535 174.155 40.5551C174.171 40.2871 174.179 39.7749 174.179 39.0183C174.179 38.246 174.194 37.6549 174.226 37.2451C174.273 36.8668 174.352 36.4727 174.462 36.0629C174.573 35.6373 174.707 35.1802 174.864 34.6916C175.038 34.1872 175.164 33.8011 175.243 33.5331C176.094 30.8378 176.007 28.5286 174.983 26.6057C174.951 26.5111 174.896 26.4953 174.817 26.5584C174.786 26.5899 174.778 26.6214 174.793 26.653C175.408 28.4341 175.235 30.625 174.273 33.2257C174.194 33.4622 174.06 33.8011 173.871 34.2424C173.698 34.668 173.548 35.062 173.422 35.4245C173.296 35.7713 173.201 36.1102 173.138 36.4412C173.012 37.1032 172.918 38.0805 172.855 39.3729C172.807 40.7285 172.516 41.9264 171.98 42.9667C171.633 43.6602 171.326 44.1252 171.058 44.3616C170.727 44.4877 170.309 44.6059 169.805 44.7163C169.616 44.7163 169.489 44.7478 169.426 44.8109C166.227 45.5517 162.932 45.6147 159.544 45C159.086 44.7163 158.566 44.3144 157.983 43.7942C156.88 42.8012 156.092 41.619 155.619 40.2477C155.367 39.6015 155.13 38.6637 154.91 37.4342C154.689 36.189 154.539 35.4167 154.46 35.1172C154.303 34.4394 153.956 33.5173 153.42 32.3509C152.9 31.1688 152.569 30.3807 152.427 29.9866C152.411 29.8921 152.356 29.8605 152.262 29.8921C152.183 29.9078 152.143 29.9551 152.143 30.0339C152.222 30.3649 152.482 31.2082 152.924 32.5637C153.381 33.9035 153.649 34.9517 153.727 35.7083C153.759 35.9762 153.798 36.4333 153.846 37.0796C153.893 37.71 153.932 38.1987 153.964 38.5454C154.011 38.8922 154.082 39.3178 154.177 39.8222C154.287 40.3265 154.413 40.7915 154.555 41.2171C154.933 42.2259 155.516 43.2268 156.304 44.2198C156.163 44.1567 155.918 44.07 155.572 43.9597C155.241 43.8494 154.996 43.7627 154.839 43.6996C153.814 42.5648 153.184 41.4457 152.947 40.3423C152.837 39.8379 152.734 39.0813 152.64 38.0726C152.561 37.0638 152.474 36.3387 152.38 35.8974C152.317 35.4876 152.206 35.0541 152.049 34.597C151.907 34.1399 151.765 33.7538 151.623 33.4385C151.481 33.1075 151.292 32.6898 151.056 32.1854C150.819 31.6653 150.646 31.2712 150.536 31.0033C149.684 28.9385 149.574 27.0549 150.205 25.3526C150.189 25.3053 150.157 25.2817 150.11 25.2817C149.196 26.8106 148.999 28.6232 149.519 30.7196C149.645 31.1609 149.842 31.752 150.11 32.4928C150.394 33.2179 150.622 33.8956 150.796 34.5261C150.985 35.1566 151.111 35.7556 151.174 36.323C151.19 36.6067 151.213 37.0874 151.245 37.7652C151.292 38.4272 151.324 38.9552 151.339 39.3493C151.371 39.7434 151.434 40.2162 151.529 40.7679C151.639 41.3196 151.773 41.8082 151.931 42.2338C151.095 41.7294 150.228 41.0516 149.33 40.2005C149.188 39.5542 149.046 38.6085 148.904 37.3633C148.778 36.1023 148.597 34.9832 148.36 34.006C148.14 33.0287 147.801 32.1382 147.344 31.3343C147.312 31.287 147.273 31.2712 147.226 31.287C147.194 31.287 147.162 31.3106 147.131 31.3579C147.099 31.4052 147.092 31.4525 147.107 31.4998C147.186 31.6889 147.257 31.8938 147.32 32.1145C147.399 32.3352 147.462 32.5322 147.509 32.7056C147.572 32.879 147.62 33.0996 147.651 33.3676C147.698 33.6198 147.738 33.8168 147.769 33.9587C147.801 34.0848 147.825 34.3054 147.84 34.6207C147.856 34.9202 147.864 35.1251 147.864 35.2354C147.88 35.33 147.888 35.5506 147.888 35.8974C147.903 36.2442 147.911 36.4491 147.911 36.5121C147.911 36.5752 147.911 36.8037 147.911 37.1978C147.911 37.5918 147.911 37.8046 147.911 37.8361C147.958 38.1199 147.982 38.3957 147.982 38.6637C146.059 36.2521 144.909 33.541 144.53 30.5304C144.057 26.7948 144.83 23.2247 146.847 19.8201C148.518 16.8726 150.961 14.5004 154.177 12.7035C156.541 11.411 159.063 10.5914 161.742 10.2447C164.422 9.89789 167.078 10.087 169.71 10.8121C172.342 11.5371 174.667 12.7823 176.685 14.5477C178.277 15.9505 179.561 17.6292 180.539 19.5837C181.532 21.5382 182.17 23.5872 182.454 25.7309C182.753 28.111 182.635 30.3886 182.099 32.5637C181.815 31.4919 181.595 30.7432 181.437 30.3176ZM171.791 34.3843C172.658 30.4122 172.823 26.913 172.287 23.8867C171.562 19.631 169.884 16.3209 167.251 13.9566C166.069 12.869 164.855 12.3252 163.61 12.3252H163.421C162.113 12.4198 160.836 13.0661 159.591 14.264C158.582 15.1782 157.699 16.384 156.943 17.8814C156.186 19.3788 155.619 21.0732 155.241 22.9646C154.563 26.1328 154.46 29.2458 154.933 32.3037C155.406 35.5349 156.312 38.0726 157.652 39.9167C158.992 41.6978 160.82 42.7303 163.137 43.014H163.61C163.831 43.0455 164.138 43.0613 164.532 43.0613C165.998 43.014 167.243 42.5805 168.268 41.7609C169.828 40.5157 171.003 38.0568 171.791 34.3843Z" fill="white"/>
<path d="M7.58368 57.7306C7.5347 57.317 7.33606 56.9959 6.98776 56.7673C6.63946 56.5388 6.21225 56.4245 5.70613 56.4245C5.33606 56.4245 5.01225 56.4843 4.7347 56.6041C4.45987 56.7238 4.2449 56.8884 4.0898 57.098C3.93742 57.3075 3.86123 57.5456 3.86123 57.8122C3.86123 58.0354 3.91429 58.2272 4.02041 58.3878C4.12925 58.5456 4.26803 58.6775 4.43674 58.7837C4.60544 58.8871 4.78232 58.9728 4.96735 59.0408C5.15238 59.1061 5.32245 59.1592 5.47755 59.2L6.32653 59.4286C6.54422 59.4857 6.7864 59.5646 7.05307 59.6653C7.32245 59.766 7.5796 59.9034 7.82449 60.0775C8.07211 60.249 8.2762 60.4694 8.43674 60.7388C8.59728 61.0082 8.67756 61.3388 8.67756 61.7306C8.67756 62.1823 8.55919 62.5905 8.32245 62.9551C8.08844 63.3197 7.74558 63.6095 7.29388 63.8245C6.8449 64.0395 6.29932 64.1469 5.65715 64.1469C5.05851 64.1469 4.54014 64.0503 4.10204 63.8571C3.66667 63.6639 3.32381 63.3946 3.07347 63.049C2.82585 62.7034 2.68571 62.302 2.65306 61.8449H3.69796C3.72517 62.1605 3.83129 62.4218 4.01633 62.6286C4.20408 62.8327 4.44082 62.985 4.72653 63.0857C5.01497 63.1837 5.32517 63.2327 5.65715 63.2327C6.04354 63.2327 6.39048 63.1701 6.69796 63.0449C7.00545 62.917 7.24898 62.7401 7.42858 62.5143C7.60817 62.2857 7.69796 62.019 7.69796 61.7143C7.69796 61.4367 7.62041 61.2109 7.46531 61.0367C7.31021 60.8626 7.10613 60.7211 6.85307 60.6122C6.6 60.5034 6.32653 60.4082 6.03266 60.3265L5.00408 60.0326C4.35102 59.8449 3.83402 59.5769 3.45306 59.2286C3.07211 58.8803 2.88163 58.4245 2.88163 57.8612C2.88163 57.3932 3.00816 56.985 3.26123 56.6367C3.51701 56.2857 3.85987 56.0136 4.2898 55.8204C4.72245 55.6245 5.20544 55.5265 5.73878 55.5265C6.27755 55.5265 6.75647 55.6231 7.17551 55.8163C7.59456 56.0068 7.92654 56.268 8.17143 56.6C8.41905 56.932 8.54967 57.3088 8.56327 57.7306H7.58368ZM35.8609 56.5388V55.6408H42.1303V56.5388H39.5017V64H38.4895V56.5388H35.8609ZM69.6687 64V55.6408H72.4932C73.1463 55.6408 73.6823 55.7524 74.1014 55.9755C74.5204 56.1959 74.8306 56.4993 75.032 56.8857C75.2333 57.2721 75.334 57.7116 75.334 58.2041C75.334 58.6966 75.2333 59.1333 75.032 59.5143C74.8306 59.8952 74.5218 60.1946 74.1054 60.4122C73.6891 60.6272 73.1571 60.7347 72.5095 60.7347H70.2238V59.8204H72.4769C72.9231 59.8204 73.2823 59.7551 73.5544 59.6245C73.8293 59.4939 74.0279 59.3088 74.1503 59.0694C74.2755 58.8272 74.3381 58.5388 74.3381 58.2041C74.3381 57.8694 74.2755 57.5769 74.1503 57.3265C74.0252 57.0762 73.8252 56.883 73.5503 56.7469C73.2755 56.6082 72.9122 56.5388 72.4605 56.5388H70.681V64H69.6687ZM73.6034 60.2449L75.6606 64H74.485L72.4605 60.2449H73.6034ZM102.997 64V55.6408H108.042V56.5388H104.009V59.3633H107.781V60.2612H104.009V63.102H108.107V64H102.997ZM136.185 64H135.124L138.194 55.6408H139.238L142.308 64H141.247L138.749 56.9633H138.683L136.185 64ZM136.577 60.7347H140.855V61.6327H136.577V60.7347ZM169.586 55.6408H170.794L173.635 62.5796H173.733L176.574 55.6408H177.782V64H176.835V57.649H176.753L174.141 64H173.227L170.615 57.649H170.533V64H169.586V55.6408Z" fill="white"/>
<defs>
<filter id="filter0_f_174_1249" x="2.94531" y="12.3672" width="183.961" height="38.5547" filterUnits="userSpaceOnUse" color-interpolation-filters="sRGB">
<feFlood flood-opacity="0" result="BackgroundImageFix"/>
<feBlend mode="normal" in="SourceGraphic" in2="BackgroundImageFix" result="shape"/>
<feGaussianBlur stdDeviation="0.5" result="effect1_foregroundBlur_174_1249"/>
</filter>
<linearGradient id="paint0_linear_174_1249" x1="95" y1="-5.5" x2="95" y2="90.5" gradientUnits="userSpaceOnUse">
<stop stop-color="#A3A3A3"/>
<stop offset="1" stop-color="#CDCDCD" stop-opacity="0"/>
</linearGradient>
</defs>
</svg>
